<svg width="406" height="115" viewBox="0 0 406 115" fill="none" xmlns="http://www.w3.org/2000/svg">
    <g clip-path="url(#lgg7qznsta)" fill="#A3A5A8">
        <path d="M62.15 86.52c-4.17 6.12-9.94 8.67-15.27 9.14-9.21.8-16.88-4.07-21.47-8.18.03 1.2-.15 2.94-.53 5.58-2.4-1.4-4.49-2.22-6.1-2.71.59-6.7.53-12.3.46-14.65v-3.46h2.99c1.55 5.58 7.17 10.79 13.52 13.55 5.95 2.59 12.54 2.2 17.59-2.07 3.48-2.98 5.13-11.35 1.42-16.91-.75-1.12-1.8-2.16-3.03-3.15h10.83c.95 1.43 1.94 3.43 2.26 4.8 1.35 5.52.88 12.9-2.67 18.06zM30.02 112.61c-4.86-8.32-14.32-15.48-21.18-12.98-2.35.86-3.53 3.01-3.5 5.14.03 2.87 2 5.65 6.15 5.3.86-.07 2.2-.52 2.97-1.14 1.44-1.2 2.11-2.98 2.43-4.17 1.39.7 3.27 2.02 4.72 3.55-2.69 6.16-11.4 8.06-16.88 4.74-3.08-1.84-5.27-5.39-4.62-10.61.47-3.91 2.87-6.46 5.64-8.17 3.36-2.08 7.41-2.38 12.35-1.13 5.49 1.4 10.27 4.94 11.95 7.4.98-1.19 2.14-3.12 2.98-4.65 1.78.94 4.78 2.19 8.01 2.57-1.58 3.81-7.56 11.95-11.02 14.14M24.18 26.44c7.93-9.67 22.76-9.09 31.4-2.82.38.26 2.41 1.78 2.75 2.06l10.64-3.18S56.51 35 56.42 35c-5.05-8.74-20.95-12.46-25.7-2.82-2.43 4.96-1.89 10.5 4.1 14.17v9.43c-1-.45-2.02-.88-2.96-1.38-14.75-7.82-12.77-21.74-7.68-27.97M82.17 37.8v4.27h-5.7l.03 6.76h-8.44v-6.76h-7.05l15.46-15.44V37.8h5.7z"/>
        <path d="M27.76 0c.87 3.67 4.36 7.96 18.09 7.96 15.04 0 26.93.07 29.65.06 24.78-.03 27.26 21.36 27.26 26.02 0 5.87-.92 18.28-13.26 24.19-2.13 1.03-3.65 1.71-6.52 2.44 4.73 2.75 8.87 12.07 12.94 21.89 2.61 6.32 4.86 12.55 7.5 16.7 1.51 2.34 3.73 4.99 5.85 6.01.98.48 2.38.6 3.49.65 2.54.05 4.16-1.24 4.88-2.52-2.41 1.24-5.17-.26-5.99-2.34-.82-1.96-.55-3.73.46-5.32 1.21-1.93 3.07-2.7 5.46-2.57 7.04.37 7.14 8.31 7.14 8.31-.11 4.48-1.51 7.59-4.61 9.89-2.01 1.49-4.33 2.47-7.73 2.61-7.44.31-16.42-4.38-24.25-28.05-2.89-8.72-7.42-17.67-12.19-21.34-2.21-1.71-6.25-4.21-12.04-4.21l-17.2-.03s-.25 4.78-.23 5.97c.08 2.7-.85 16.04-1.67 17.68-1.99.4-7.25-.72-8.18-1.78 1.18-4.61 1.49-10.25 1.66-20.09.02-1.33.02-1.89.02-1.89l-.06-29.78c1.53-.74 6.7-.1 8.36 1.34l.03 20.11s20.7-.03 29.43-.03c12.38 0 18.4-7.49 18.4-17.85 0-10.36-6.81-17.56-18.98-17.56H45.86l-4.83-.02c-7.91 0-16.82-7.23-13.27-16.47"/>
        <path d="m109.31 69.03-6.97 6.95-6.96-6.95 6.96-6.96 6.97 6.96zM68.09 109.96V64.54c2.49.06 7.66 3.75 8.35 5.21v24.76l5.69-5.49 3.76 3.59-17.79 17.34-.01.01zM161.66 30.76c0-3.05 4.06-3.95 7.67-3.95 4.75 0 8.65 3.04 9.52 7.33h3.32l.03-8.5-3.62 1.83c-1.82-1.34-5.72-2.57-9.31-2.57-6.05 0-13.38 1.75-13.38 8.68 0 8.88 22.35 7.93 22.35 15.01 0 3.47-4.37 4.5-8.74 4.5-5.62 0-9.07-4.13-9.88-8.62h-3.68v9.82l3.73-2.02c3.28 1.72 6.06 2.7 9.63 2.7 8.04 0 14.34-2.57 14.34-8.94 0-10.74-21.98-9.66-21.98-15.27zm28.32 2.92 6.54-5.34h4.93v14.93l-3.63 3.08h14.58l-3.64-3.08V28.34h4.95l6.53 5.34v-7.49h-30.26v7.49zm10.39 20.05 4.75 4.1 4.73-4.1-4.73-4.02-4.75 4.02zm133.29-13.61 3.54 2.81v4.84c0 2.56-3.78 4.62-6.53 4.62-8.8 0-9.83-7.61-9.83-12.46 0-6.77 2.69-12.64 9.84-12.64 6.18 0 8.75 3.21 10.88 7.97h3.06v-9.09l-3.66 1.76c-1.31-.72-4.31-2.55-10.23-2.55-10.8 0-18.34 4.61-18.34 14.41 0 10.49 7.47 14.66 18.15 14.66 3 0 6.68-1.02 10.04-3l4.03 2.29V42.91l3.51-2.81h-14.46v.02zm49.98-9.36c0-3.05 4.06-3.95 7.69-3.95 4.74 0 8.6 3.04 9.53 7.33h3.27l.04-8.5-3.6 1.83c-1.85-1.34-5.71-2.57-9.29-2.57-6.05 0-13.38 1.75-13.38 8.68 0 8.88 22.32 7.93 22.32 15.01 0 3.47-4.38 4.5-8.74 4.5-5.61 0-9-4.13-9.86-8.62h-3.64v9.82l3.7-2.02c3.26 1.72 6.02 2.7 9.63 2.7 8 0 14.31-2.57 14.31-8.94 0-10.74-21.98-9.66-21.98-15.27zm-14.31-4.57H354.7l3.59 3.09v21.38l-3.59 3.07h14.63l-3.62-3.07V29.28l3.62-3.09zm-82.79 25.43V41.03h8.09l3.49 3.11V35.8l-3.49 3.09h-8.09V28.34h12.22l6.49 5.34v-7.49h-30.12l4.03 3.51v20.6l-4.03 3.43h30.12v-7.47l-6.49 5.37h-12.22v-.01zm-25.69-7.64-5.2-3c6.01-.22 10.2-1.36 10.2-7.17s-5.68-7.62-13.49-7.62h-19.51l3.59 3.12V50.3l-3.59 3.44h14.28l-3.59-3.43v-9.27h7.48l7.75 12.7h9.73l-3.99-3.44-3.65-6.31-.01-.01zm-11.55-5.09h-5.76V28.36h5.76c5.89 0 8.02.37 8.02 5.26s-2.13 5.28-8.02 5.28M158.48 76.78v5h2.41c1.96 0 3.47-.29 3.47-2.41 0-2.41-1.78-2.59-3.59-2.59h-2.29zm2.28-2.08c3.24 0 6.29.53 6.29 4.65 0 3.73-2.76 4.55-6.25 4.55h-2.33v5.59h-2.59V74.7h4.88zM174.14 74.7v8.73c0 2.72.71 4.21 3.47 4.21 2.76 0 3.45-1.57 3.45-4.29V74.7h2.59v8.55c0 4.67-1.74 6.51-6.04 6.51s-6.06-1.65-6.06-6.43V74.7h2.59zM198.19 89.49l-6.26-11.81v11.81h-2.51V74.7h3.47l6.26 11.81V74.7h2.51v14.79h-3.47zM210.92 76.86h-4.65V74.7h11.89v2.16h-4.65v12.63h-2.59V76.86zM224.4 84.04h4.47l-2.25-6.34-2.22 6.34zm.96-9.34h2.74l5.55 14.79h-2.83l-1.16-3.29h-6l-1.14 3.29h-2.65l5.51-14.79h-.02zM252.14 89.49l-3.75-11.97v11.97h-2.53V74.7h4.02l3.59 11.79 3.57-11.79h4.02v14.79h-2.53V77.52l-3.76 11.97h-2.63zM269.64 74.7h-2.59v14.79h2.59V74.7zM278.9 76.86h-4.65V74.7h11.9v2.16h-4.66v12.63h-2.59V76.86zM292.38 84.04h4.47l-2.25-6.34-2.22 6.34zm.96-9.34h2.74l5.55 14.79h-2.83l-1.16-3.29h-6l-1.14 3.29h-2.65l5.51-14.79h-.02z"/>
    </g>
    <defs>
        <clipPath id="lgg7qznsta">
            <path fill="#fff" d="M0 0h405.62v114.67H0z"/>
        </clipPath>
    </defs>
</svg>
