<svg width="24" height="24" viewBox="0 0 24 24" fill="none" xmlns="http://www.w3.org/2000/svg">
    <g clip-path="url(#m699yrkf0a)">
        <path d="M5.58 24.16a.564.564 0 0 1-.58-.58.564.564 0 0 1 .58-.58h12.75a.564.564 0 0 1 .58.58.564.564 0 0 1-.58.58H5.58z" fill="#fff"/>
        <path d="M19 11.79c-.742 0-1.85.843-2.78 1.698a14.595 14.595 0 0 0-3.046 3.915C12.575 18.532 12 19.9 12 21m0 0c0-1.1-.575-2.47-1.174-3.597a14.652 14.652 0 0 0-3.045-3.915C6.85 12.633 5.74 11.79 5 11.79M12 21V0" stroke="#fff"/>
    </g>
    <defs>
        <clipPath id="m699yrkf0a">
            <path fill="#fff" d="M0 0h24v24H0z"/>
        </clipPath>
    </defs>
</svg>
