<svg width="160" height="45" viewBox="0 0 160 45" fill="none" xmlns="http://www.w3.org/2000/svg">
    <path d="M24.386 33.956c-1.636 2.401-3.9 3.402-5.992 3.586-3.613.314-6.623-1.596-8.424-3.21.012.472-.059 1.154-.208 2.19A11.27 11.27 0 0 0 7.37 35.46c.231-2.629.208-4.826.18-5.748v-1.358h1.173c.609 2.19 2.814 4.234 5.305 5.317 2.335 1.016 4.92.863 6.902-.813 1.366-1.169 2.013-4.453.557-6.634-.294-.44-.706-.848-1.189-1.236h4.25c.373.56.761 1.345.887 1.883.53 2.166.345 5.061-1.048 7.086zM11.779 44.193C9.872 40.93 6.16 38.12 3.469 39.1c-.923.338-1.386 1.181-1.374 2.017.012 1.126.785 2.217 2.413 2.08.338-.028.864-.204 1.166-.448.565-.47.828-1.169.953-1.636a7.284 7.284 0 0 1 1.852 1.393c-1.055 2.417-4.473 3.163-6.623 1.86C.647 43.644-.212 42.25.043 40.203c.184-1.534 1.126-2.535 2.213-3.206 1.318-.816 2.908-.934 4.846-.443 2.154.549 4.03 1.938 4.689 2.903.384-.467.84-1.224 1.17-1.824.697.369 1.875.86 3.142 1.008-.62 1.495-2.966 4.689-4.324 5.548M9.488 10.382c3.111-3.794 8.93-3.566 12.32-1.106.15.102.946.698 1.08.808l4.174-1.248s-4.889 4.905-4.924 4.905c-1.982-3.43-8.22-4.889-10.084-1.107-.954 1.947-.742 4.12 1.608 5.56v3.7c-.392-.176-.792-.345-1.16-.54-5.788-3.07-5.012-8.531-3.014-10.976M32.241 14.84v1.675h-2.236l.012 2.653h-3.312v-2.653h-2.766l6.066-6.058v4.383h2.236z" fill="#A3A5A8"/>
    <path d="M10.892.008c.341 1.44 1.71 3.123 7.098 3.123 5.902 0 10.567.028 11.634.024 9.723-.012 10.696 8.38 10.696 10.21 0 2.303-.36 7.172-5.203 9.49-.835.405-1.432.672-2.558.958 1.856 1.08 3.48 4.736 5.078 8.59 1.024 2.48 1.906 4.924 2.942 6.552.593.918 1.464 1.958 2.296 2.358.384.189.934.236 1.37.255.996.02 1.631-.486 1.914-.988-.946.486-2.029-.102-2.35-.919-.322-.769-.216-1.463.18-2.087.475-.757 1.205-1.06 2.142-1.008 2.763.145 2.802 3.26 2.802 3.26-.043 1.758-.593 2.978-1.809 3.88-.789.585-1.699.97-3.033 1.025-2.92.121-6.443-1.719-9.515-11.006-1.134-3.422-2.912-6.934-4.783-8.374-.867-.67-2.453-1.651-4.724-1.651l-6.75-.012s-.097 1.875-.09 2.342c.032 1.06-.333 6.294-.655 6.937-.78.157-2.844-.282-3.21-.698.464-1.809.585-4.022.652-7.883.008-.522.008-.741.008-.741L15 11.96c.6-.29 2.63-.04 3.28.525l.012 7.891s8.122-.012 11.548-.012c4.858 0 7.22-2.939 7.22-7.004 0-4.065-2.672-6.89-7.448-6.89H17.994L16.1 6.462c-3.104 0-6.6-2.836-5.207-6.462" fill="#A3A5A8"/>
    <path d="m42.89 27.093-2.734 2.728-2.731-2.728 2.73-2.73 2.735 2.73zM26.717 43.154V25.332c.977.023 3.005 1.471 3.276 2.044v9.715l2.233-2.154 1.475 1.409-6.98 6.804-.004.004zM63.431 12.077c0-1.196 1.593-1.55 3.01-1.55 1.864 0 3.394 1.193 3.735 2.877h1.303l.012-3.336-1.42.718c-.715-.525-2.245-1.008-3.654-1.008-2.374 0-5.25.687-5.25 3.406 0 3.484 8.77 3.111 8.77 5.89 0 1.36-1.715 1.765-3.43 1.765-2.205 0-3.558-1.62-3.876-3.382h-1.444v3.853l1.463-.793c1.287.675 2.378 1.06 3.779 1.06 3.155 0 5.627-1.009 5.627-3.508 0-4.214-8.625-3.79-8.625-5.992zm11.112 1.146 2.566-2.095h1.935v5.858l-1.424 1.209h5.72l-1.428-1.209v-5.858h1.942l2.563 2.095v-2.939H74.543v2.94zm4.077 7.867 1.864 1.609 1.856-1.609-1.856-1.577-1.864 1.577zm52.3-5.34 1.389 1.102v1.9c0 1.004-1.483 1.812-2.562 1.812-3.453 0-3.857-2.986-3.857-4.889 0-2.656 1.055-4.96 3.861-4.96 2.424 0 3.433 1.26 4.269 3.128h1.2v-3.567l-1.436.69c-.514-.282-1.691-1-4.014-1-4.237 0-7.196 1.81-7.196 5.655 0 4.115 2.931 5.752 7.122 5.752 1.177 0 2.621-.4 3.939-1.177l1.581.898v-4.25l1.378-1.102h-5.674v.008zm19.611-3.673c0-1.196 1.593-1.55 3.017-1.55 1.86 0 3.375 1.193 3.739 2.877h1.284l.015-3.336-1.412.718c-.726-.525-2.241-1.008-3.645-1.008-2.374 0-5.25.687-5.25 3.406 0 3.484 8.757 3.111 8.757 5.89 0 1.36-1.718 1.765-3.429 1.765-2.201 0-3.531-1.62-3.869-3.382h-1.428v3.853l1.452-.793c1.279.675 2.362 1.06 3.778 1.06 3.139 0 5.615-1.009 5.615-3.508 0-4.214-8.624-3.79-8.624-5.992zm-5.615-1.793h-5.741l1.409 1.213v8.389l-1.409 1.204h5.741l-1.421-1.204v-8.39l1.421-1.212zm-32.485 9.978v-4.155h3.174l1.37 1.22v-3.272l-1.37 1.212h-3.174v-4.14h4.795l2.546 2.096v-2.939h-11.818l1.581 1.377v8.083l-1.581 1.346h11.818v-2.93l-2.546 2.106h-4.795v-.004zm-10.08-2.997-2.04-1.178c2.358-.086 4.002-.533 4.002-2.813 0-2.28-2.229-2.99-5.293-2.99h-7.655l1.408 1.224v8.236l-1.408 1.35h5.603l-1.409-1.346v-3.637h2.935l3.041 4.983h3.818l-1.566-1.35-1.432-2.476-.004-.003zm-4.532-1.998h-2.26v-4.131h2.26c2.311 0 3.147.145 3.147 2.064 0 1.918-.836 2.071-3.147 2.071M62.184 30.134v1.962h.945c.77 0 1.362-.113 1.362-.945 0-.946-.699-1.017-1.409-1.017h-.898zm.894-.816c1.271 0 2.468.208 2.468 1.825 0 1.463-1.083 1.785-2.452 1.785h-.914v2.194h-1.017v-5.804h1.915zM68.328 29.318v3.426c0 1.067.279 1.652 1.362 1.652 1.082 0 1.353-.616 1.353-1.684v-3.394h1.016v3.355c0 1.832-.682 2.554-2.37 2.554-1.687 0-2.377-.647-2.377-2.522v-3.387h1.016zM77.765 35.121l-2.457-4.633v4.633h-.985v-5.803h1.362l2.456 4.634v-4.634h.985v5.803h-1.361zM82.76 30.166h-1.825v-.848H85.6v.848h-1.824v4.955H82.76v-4.955zM88.049 32.983h1.754l-.883-2.488-.871 2.488zm.377-3.665H89.5l2.177 5.803h-1.11l-.455-1.29h-2.354l-.448 1.29h-1.04l2.162-5.803h-.007zM98.933 35.121l-1.471-4.696v4.696h-.993v-5.803h1.578l1.408 4.626 1.401-4.626h1.577v5.803h-.992v-4.696l-1.476 4.696h-1.032zM105.8 29.318h-1.016v5.803h1.016v-5.803zM109.433 30.166h-1.824v-.848h4.669v.848h-1.828v4.955h-1.017v-4.955zM114.723 32.983h1.753l-.882-2.488-.871 2.488zm.376-3.665h1.075l2.178 5.803h-1.11l-.456-1.29h-2.354l-.447 1.29h-1.04l2.162-5.803h-.008z" fill="#A3A5A8"/>
</svg>
