<?xml version="1.0" encoding="utf-8"?>
<!-- Generator: Adobe Illustrator 22.0.1, SVG Export Plug-In . SVG Version: 6.00 Build 0)  -->
<svg version="1.1" id="Capa_1" xmlns="http://www.w3.org/2000/svg" xmlns:xlink="http://www.w3.org/1999/xlink" x="0px" y="0px"
	 viewBox="0 0 207.1 66.6" style="enable-background:new 0 0 207.1 66.6;" xml:space="preserve">
<style type="text/css">
	.st0{fill:#ffffff;}
</style>
<g>
	<g>
		<g>
			<g>
				<path class="st0" d="M78.3,0.4c0,5.5,0,11.1,0,16.6C76.7,11.5,75,6,73.4,0.6l0,0c-1.1,0.1-2.2,0.1-3.3,0.2
					c-1.4,0.1-2.8,0.1-4.2,0.2c-0.5,0-0.9,0.1-1.4,0.1c0,16,0,32,0,48c0.5,0,0.9-0.1,1.4-0.1c2.5-0.1,5-0.3,7.6-0.4
					c0-5.5,0-11.1,0-16.6c1.6,5.5,3.3,10.9,4.9,16.4l0,0c0.2,0,0.4,0,0.7,0c2.5-0.1,5.1-0.2,7.6-0.2c0.2,0,0.5,0,0.7,0
					c0-16,0-32,0-48c-0.2,0-0.5,0-0.7,0C83.8,0.2,81,0.3,78.3,0.4z"/>
				<path class="st0" d="M25.4,4.6C22,5,18.6,5.4,15.2,5.9l0,0c-2.1,2.4-4.2,4.8-6.3,7.2c0,5.9,0,11.8,0,17.7
					c-3,1.9-5.9,3.9-8.9,5.8c3,1,5.9,2,8.9,3.1c0,2.9,0,5.8,0,8.8c2.1,1.8,4.2,3.6,6.3,5.4l0,0c3.4-0.5,6.8-0.9,10.2-1.3l0,0
					c2.1-2.4,4.2-4.7,6.3-7c0-2.8,0-5.7,0-8.5c-3,0.3-5.9,0.7-8.9,1c0,1.6,0,3.2,0,4.8c-0.4,0.4-0.7,0.8-1.1,1.2
					c-0.9,0.1-1.8,0.2-2.8,0.3c-0.4-0.3-0.7-0.6-1.1-0.9c0-4.7,0-9.3,0-14s0-9.3,0-14c0.4-0.4,0.7-0.8,1.1-1.2
					c0.9-0.1,1.8-0.2,2.8-0.3c0.4,0.3,0.7,0.6,1.1,1c0,3.2,0,6.3,0,9.5c3-0.4,5.9-0.7,8.9-1c0-4.4,0-8.8,0-13.2
					C29.6,8.3,27.5,6.5,25.4,4.6L25.4,4.6z"/>
				<path class="st0" d="M53.1,1.9c-3.4,0.3-6.8,0.5-10.2,0.9l0,0c-2.1,2.3-4.2,4.6-6.3,6.9c0,13.9,0,27.8,0,41.7
					c3-0.3,6-0.6,8.9-0.8c0-4.9,0-9.9,0-14.8c1.6-0.1,3.3-0.3,4.9-0.4c0,4.9,0,9.9,0,14.8c3-0.2,6-0.5,8.9-0.7c0-13.9,0-27.8,0-41.7
					C57.3,5.8,55.2,3.8,53.1,1.9L53.1,1.9z M50.5,26.4c-1.6,0.1-3.3,0.3-4.9,0.4c0-4.8,0-9.5,0-14.3c0.4-0.4,0.7-0.8,1.1-1.2
					c0.9-0.1,1.8-0.2,2.8-0.2c0.4,0.3,0.7,0.7,1.1,1C50.5,16.9,50.5,21.6,50.5,26.4z"/>
				<path class="st0" d="M108.8,0c-3.4,0-6.8,0-10.2,0l0,0c-2.1,2.1-4.2,4.3-6.3,6.4c0,13.9,0,27.8,0,41.7c3-0.1,6-0.1,9-0.1
					c0-4.9,0-9.9,0-14.8c1.7,0,3.3,0,5,0c0,4.9,0,9.9,0,14.8c3,0,6,0,9,0.1c0-13.9,0-27.8,0-41.7C113,4.2,110.9,2.1,108.8,0
					C108.7,0,108.7,0,108.8,0z M106.1,24.2c-1.7,0-3.3,0-5,0c0-4.8,0-9.5,0-14.3c0.4-0.4,0.7-0.7,1.1-1.1c0.9,0,1.8,0,2.8,0
					c0.4,0.4,0.7,0.7,1.1,1.1C106.1,14.7,106.1,19.5,106.1,24.2z"/>
				<path class="st0" d="M198.3,31c0-6,0-12,0-18c-2.1-2.4-4.2-4.8-6.3-7.2l0,0c-3.4-0.5-6.8-0.9-10.2-1.3l0,0
					c-2.1,1.9-4.2,3.7-6.3,5.6c0,13.9,0,27.8,0,41.7c3,0.3,5.9,0.7,8.9,1c0-4.9,0-9.9,0-14.8c1.6,0.2,3.3,0.4,4.9,0.6
					c0,4.9,0,9.9,0,14.8c3,0.4,5.9,0.8,8.9,1.2c0-4.9,0-9.9,0-14.8c3-1.1,5.9-2.1,8.9-3.1C204.3,34.9,201.3,33,198.3,31z
					 M189.4,29.8c-1.6-0.2-3.3-0.4-4.9-0.6c0-4.8,0-9.5,0-14.3c0.4-0.3,0.7-0.6,1.1-1c0.9,0.1,1.8,0.2,2.8,0.3
					c0.4,0.4,0.7,0.8,1.1,1.2C189.4,20.3,189.4,25.1,189.4,29.8z"/>
				<path class="st0" d="M156.8,41.2c0-13,0-26.1,0-39.1c-2.5-0.2-5-0.4-7.6-0.6c-0.5,0-0.9-0.1-1.4-0.1c0,16,0,32,0,48
					c2.1,0.1,4.2,0.3,6.3,0.4l0,0c3.4,0.3,6.8,0.5,10.2,0.9l0,0c2.1,0.2,4.2,0.4,6.3,0.6c0-3,0-6,0-8.9c-4.3-0.4-8.5-0.8-12.8-1.2
					C157.5,41.2,157.2,41.2,156.8,41.2z"/>
				<path class="st0" d="M129,39.5c0-13,0-26.1,0-39.1c-2.5-0.1-5-0.2-7.6-0.2c-0.5,0-0.9,0-1.4,0c0,16,0,32,0,48
					c2.1,0.1,4.2,0.1,6.3,0.2l0,0c3.4,0.1,6.8,0.3,10.2,0.4l0,0c2.1,0.1,4.2,0.2,6.3,0.4c0-3,0-6,0-8.9c-4.3-0.3-8.5-0.5-12.8-0.6
					C129.7,39.6,129.4,39.6,129,39.5z"/>
			</g>
		</g>
	</g>
	<g>
		<path class="st0" d="M47,62.7c0,0.9,0,1.4-0.1,1.7c-0.1,0.6-0.3,1.1-0.7,1.5c-0.5,0.5-1.2,0.7-2,0.7h-2.8v-7.7h2.8
			c0.9,0,1.5,0.2,2,0.7c0.4,0.4,0.6,0.9,0.7,1.4C47,61.3,47,61.9,47,62.7z M45.5,62.7c0-0.6,0-1.1-0.1-1.3c0-0.3-0.1-0.5-0.3-0.7
			c-0.3-0.3-0.6-0.5-1.1-0.5h-1.1v5H44c0.5,0,0.9-0.2,1.1-0.5c0.1-0.2,0.2-0.4,0.3-0.7C45.5,63.8,45.5,63.3,45.5,62.7z"/>
		<path class="st0" d="M53.3,66.6h-1.5v-7.7h1.5V66.6z"/>
		<path class="st0" d="M63.8,63.4c0,1.1-0.2,1.8-0.7,2.3c-0.6,0.6-1.3,0.9-2.2,0.9c-0.8,0-1.5-0.3-2.1-0.8c-0.3-0.3-0.6-0.8-0.7-1.3
			C58,64.2,58,63.6,58,62.8s0-1.4,0.1-1.7c0.1-0.5,0.3-1,0.7-1.3c0.6-0.6,1.3-0.8,2.1-0.8s1.5,0.2,2,0.7c0.5,0.4,0.7,1,0.9,1.7h-1.5
			c-0.2-0.7-0.6-1.1-1.4-1.1c-0.4,0-0.7,0.1-1,0.4c-0.2,0.2-0.3,0.6-0.3,1c0,0.1,0,0.5,0,1.1s0,1,0,1.1c0,0.5,0.2,0.8,0.3,1
			c0.2,0.3,0.6,0.4,1,0.4c0.5,0,0.8-0.1,1.1-0.4c0.2-0.3,0.3-0.6,0.3-1v-0.3h-1.4v-1.3h2.9L63.8,63.4L63.8,63.4z"/>
		<path class="st0" d="M70,66.6h-1.5v-7.7H70V66.6z"/>
		<path class="st0" d="M80,60.2h-2v6.3h-1.5v-6.3h-2v-1.3H80V60.2z"/>
		<path class="st0" d="M90.4,66.6h-1.6l-0.5-1.4h-2.7l-0.5,1.4h-1.6l2.8-7.7h1.2L90.4,66.6z M88,64l-0.9-2.8l-1,2.8H88z"/>
		<path class="st0" d="M99.5,66.6h-5v-7.7H96v6.3h3.5V66.6z"/>
		<path class="st0" d="M115.6,66.6H114l-0.5-1.4h-2.7l-0.5,1.4h-1.6l2.8-7.7h1.2L115.6,66.6z M113.2,64l-0.9-2.8l-1,2.8H113.2z"/>
		<path class="st0" d="M125.3,63.4c0,1.1-0.2,1.8-0.7,2.3c-0.6,0.6-1.3,0.9-2.2,0.9c-0.8,0-1.5-0.3-2.1-0.8
			c-0.3-0.3-0.6-0.8-0.7-1.3c-0.1-0.3-0.1-0.9-0.1-1.7s0-1.4,0.1-1.7c0.1-0.5,0.3-1,0.7-1.3c0.6-0.6,1.3-0.8,2.1-0.8s1.5,0.2,2,0.7
			c0.5,0.4,0.7,1,0.9,1.7h-1.5c-0.2-0.7-0.6-1.1-1.4-1.1c-0.4,0-0.7,0.1-1,0.4c-0.2,0.2-0.3,0.6-0.3,1c0,0.1,0,0.5,0,1.1s0,1,0,1.1
			c0,0.5,0.2,0.8,0.3,1c0.2,0.3,0.6,0.4,1,0.4c0.5,0,0.8-0.1,1.1-0.4c0.2-0.3,0.3-0.6,0.3-1v-0.3h-1.4v-1.3h2.9L125.3,63.4
			L125.3,63.4z"/>
		<path class="st0" d="M135.1,66.6H130v-7.7h5.1v1.3h-3.6V62h3v1.3h-3v1.9h3.6V66.6z"/>
		<path class="st0" d="M145.6,66.6h-1.3l-3-4.7v4.7h-1.5v-7.7h1.3l3,4.7v-4.7h1.5V66.6z"/>
		<path class="st0" d="M156.1,64.2c-0.1,0.8-0.5,1.4-1,1.8c-0.5,0.4-1.1,0.6-1.8,0.6c-0.8,0-1.5-0.3-2.1-0.8
			c-0.3-0.3-0.6-0.8-0.7-1.3c-0.1-0.3-0.1-0.9-0.1-1.7s0-1.4,0.1-1.7c0.1-0.5,0.3-1,0.7-1.3c0.6-0.6,1.3-0.8,2.1-0.8
			c0.7,0,1.4,0.2,1.9,0.6s0.8,1,1,1.8h-1.5c-0.2-0.7-0.6-1.1-1.3-1.1c-0.5,0-0.8,0.2-1,0.5c-0.2,0.3-0.3,1-0.3,2.1c0,0.6,0,1,0,1.1
			c0.1,0.5,0.2,0.8,0.4,1c0.2,0.3,0.6,0.4,1,0.4c0.7,0,1.1-0.4,1.3-1.1L156.1,64.2L156.1,64.2z"/>
		<path class="st0" d="M165.8,58.9l-2.3,4.5v3.1H162v-3.1l-2.3-4.5h1.6l1.4,3.1l1.4-3.1H165.8z"/>
	</g>
</g>
</svg>
